<svg xmlns="http://www.w3.org/2000/svg" viewBox="0 0 427.7 278.85"><defs><style>.cls-1{fill:#fff;}.cls-2{fill:#14bf98;}.cls-3{fill:#4db75c;}</style></defs><title>Asset 3</title><g id="Layer_2" data-name="Layer 2"><g id="Layer_1-2" data-name="Layer 1"><path class="cls-1" d="M177.93,27.45l-33.57,86.81v50.81H104.43V114.26L67.33,27.45h41.44l28,66.34L162,27.45Z"/><path class="cls-1" d="M293.61,27.45V165.07H263.07L205.6,78v87.11H192.19V27.45h25.3l62.72,94.07V27.45Z"/><path class="cls-1" d="M427.7,24.45V165.07h-31L338.47,75.82v89.25H324.88v-141h25.65l63.58,96.37V30.71a17.86,17.86,0,0,0-17.67-17.85L67.33,9.39V.51H403.76A23.94,23.94,0,0,1,427.7,24.45Z"/><path class="cls-2" d="M270,198H244.58a7.6,7.6,0,0,0-7.5,8.08A23.13,23.13,0,0,1,215,230.24a23.16,23.16,0,0,1-24.22-23.13V207a8.83,8.83,0,0,0-8.75-9H157.87c14.57,0,26.37,20.29,26.37,45.31,0,14.41-3.91,27.25-10,35.54H199a14.8,14.8,0,0,1,2.22-11.93,15,15,0,0,1,9-6.56,15.42,15.42,0,0,1,19.11,15,15.72,15.72,0,0,1-.42,3.53h24.75c-6.11-8.29-10-21.13-10-35.54C243.65,218.29,255.47,198,270,198Z"/><circle class="cls-1" cx="214.26" cy="220.97" r="15.39"/><path class="cls-2" d="M146.2,173.55c-.24,7.16-6.62,14.16-12.08,19.27l274,.73a19.34,19.34,0,0,0,19.39-19.26Zm-88.41-.24L58.25.1,19.82,0A19.37,19.37,0,0,0,.39,19.29L0,167.32a25.17,25.17,0,0,0,25.12,25.21l94.17.25a28.36,28.36,0,0,0,7.56-3.79,27.49,27.49,0,0,0,10.69-15.47Zm-27.95-56A15.41,15.41,0,1,1,45.3,101.94,15.42,15.42,0,0,1,29.84,117.32Z"/><path class="cls-3" d="M102.23,193H99.6c-.64-.6-1.28-1.28-1.89-2A26.51,26.51,0,0,0,102.23,193Z"/></g></g></svg>